<svg xmlns="http://www.w3.org/2000/svg" xmlns:xlink="http://www.w3.org/1999/xlink" width="2000" zoomAndPan="magnify" viewBox="0 0 1500 1499.999933" height="2000" preserveAspectRatio="xMidYMid meet" version="1.0"><defs><g/><clipPath id="d99ba5ef4b"><rect x="0" width="527" y="0" height="483"/></clipPath><clipPath id="75fee27c17"><rect x="0" width="327" y="0" height="873"/></clipPath><clipPath id="68e9d148a8"><rect x="0" width="151" y="0" height="505"/></clipPath><clipPath id="94145e7a13"><rect x="0" width="287" y="0" height="505"/></clipPath></defs><g transform="matrix(1, 0, 0, 1, 452, 584)"><g clip-path="url(#d99ba5ef4b)"><g fill="#08cb00" fill-opacity="1"><g transform="translate(2.024921, 283.718403)"><g><path d="M 149.3125 -63.34375 C 149.3125 -52.40625 146.242188 -42.082031 140.109375 -32.375 C 133.984375 -22.664062 125.59375 -14.796875 114.9375 -8.765625 C 104.289062 -2.734375 92.085938 0.375 78.328125 0.5625 C 78.140625 0.5625 78 0.46875 77.90625 0.28125 C 77.8125 0.09375 77.765625 0 77.765625 0 C 77.578125 0 77.484375 0.09375 77.484375 0.28125 C 77.484375 0.46875 77.484375 0.5625 77.484375 0.5625 C 68.429688 0.5625 59.613281 -0.988281 51.03125 -4.09375 C 42.457031 -7.207031 34.773438 -11.59375 27.984375 -17.25 C 21.203125 -22.90625 15.785156 -29.644531 11.734375 -37.46875 C 7.679688 -45.289062 5.65625 -53.914062 5.65625 -63.34375 C 5.65625 -74.65625 8.765625 -85.070312 14.984375 -94.59375 C 21.203125 -104.113281 29.734375 -111.75 40.578125 -117.5 C 51.421875 -123.25 63.722656 -126.125 77.484375 -126.125 L 77.765625 -126.125 C 77.765625 -126.125 77.859375 -126.125 78.046875 -126.125 C 78.234375 -126.125 78.328125 -126.125 78.328125 -126.125 C 91.335938 -126.125 103.210938 -123.390625 113.953125 -117.921875 C 124.703125 -112.453125 133.28125 -105.003906 139.6875 -95.578125 C 146.101562 -86.148438 149.3125 -75.40625 149.3125 -63.34375 Z M 77.765625 -40.15625 C 86.054688 -40.15625 92.554688 -42.273438 97.265625 -46.515625 C 101.984375 -50.753906 104.4375 -56.363281 104.625 -63.34375 C 104.625 -69.9375 102.21875 -75.304688 97.40625 -79.453125 C 92.601562 -83.609375 86.054688 -85.6875 77.765625 -85.6875 C 69.472656 -85.6875 62.875 -83.609375 57.96875 -79.453125 C 53.070312 -75.304688 50.625 -69.9375 50.625 -63.34375 C 50.625 -56.550781 53.070312 -50.988281 57.96875 -46.65625 C 62.875 -42.320312 69.472656 -40.15625 77.765625 -40.15625 Z M 77.765625 -40.15625 "/></g></g></g><g fill="#08cb00" fill-opacity="1"><g transform="translate(159.233743, 283.718403)"><g><path d="M 59.671875 -113.109375 C 56.648438 -105.003906 54.90625 -96.191406 54.4375 -86.671875 C 53.96875 -77.148438 54.675781 -67.910156 56.5625 -58.953125 C 58.445312 -50.003906 61.414062 -42.179688 65.46875 -35.484375 C 69.519531 -28.796875 74.46875 -24.226562 80.3125 -21.78125 C 86.90625 -26.675781 91.945312 -33.789062 95.4375 -43.125 C 98.925781 -52.457031 101 -63.15625 101.65625 -75.21875 C 102.320312 -87.28125 101.664062 -99.722656 99.6875 -112.546875 C 97.707031 -125.367188 94.40625 -137.71875 89.78125 -149.59375 C 85.164062 -161.46875 79.367188 -171.929688 72.390625 -180.984375 C 82.953125 -184.367188 94.640625 -188.984375 107.453125 -194.828125 C 120.273438 -200.679688 135.734375 -207.753906 153.828125 -216.046875 L 163.453125 -161.1875 L 135.453125 -154.109375 C 140.347656 -140.347656 143.644531 -125.832031 145.34375 -110.5625 C 147.039062 -95.289062 147.085938 -80.253906 145.484375 -65.453125 C 143.890625 -50.660156 140.59375 -37.039062 135.59375 -24.59375 C 130.59375 -12.15625 123.898438 -1.789062 115.515625 6.5 C 107.128906 14.800781 97.09375 19.988281 85.40625 22.0625 C 70.882812 18.851562 57.96875 13.050781 46.65625 4.65625 C 35.34375 -3.726562 26.148438 -14.09375 19.078125 -26.4375 C 12.015625 -38.789062 7.632812 -52.363281 5.9375 -67.15625 C 4.238281 -81.957031 5.65625 -97.273438 10.1875 -113.109375 Z M 59.671875 -113.109375 "/></g></g></g><g fill="#08cb00" fill-opacity="1"><g transform="translate(314.463318, 283.718403)"><g><path d="M 205.578125 -138.5625 C 205.390625 -117.632812 202.375 -99.109375 196.53125 -82.984375 C 190.6875 -66.867188 182.109375 -52.96875 170.796875 -41.28125 C 174.191406 -28.082031 175.890625 -14.320312 175.890625 0 L 125.265625 0 C 125.648438 -9.613281 124.851562 -19.367188 122.875 -29.265625 C 120.894531 -39.160156 117.828125 -48.300781 113.671875 -56.6875 C 109.523438 -65.082031 104.390625 -71.867188 98.265625 -77.046875 C 92.140625 -82.234375 85.023438 -84.828125 76.921875 -84.828125 C 68.804688 -84.828125 62.25 -82.800781 57.25 -78.75 C 52.257812 -74.695312 49.765625 -69.375 49.765625 -62.78125 C 49.765625 -56.363281 52.257812 -51.082031 57.25 -46.9375 C 62.25 -42.789062 68.804688 -40.71875 76.921875 -40.71875 C 87.472656 -40.71875 98.125 -43.828125 108.875 -50.046875 C 111.507812 -44.390625 113.675781 -37.835938 115.375 -30.390625 C 117.070312 -22.953125 118.203125 -15.554688 118.765625 -8.203125 C 102.742188 -2.171875 88.320312 0.84375 75.5 0.84375 C 62.113281 0.84375 50.140625 -2.03125 39.578125 -7.78125 C 29.023438 -13.53125 20.734375 -21.066406 14.703125 -30.390625 C 8.671875 -39.722656 5.65625 -49.859375 5.65625 -60.796875 C 5.65625 -69.085938 7.445312 -77.097656 11.03125 -84.828125 C 14.613281 -92.554688 19.609375 -99.53125 26.015625 -105.75 C 32.421875 -111.976562 39.910156 -116.929688 48.484375 -120.609375 C 57.066406 -124.285156 66.351562 -126.125 76.34375 -126.125 C 91.425781 -126.125 104.90625 -122.960938 116.78125 -116.640625 C 128.664062 -110.328125 138.847656 -101.800781 147.328125 -91.0625 C 149.960938 -98.59375 151.1875 -106.503906 151 -114.796875 C 150.8125 -123.097656 150.8125 -131.019531 151 -138.5625 Z M 205.578125 -138.5625 "/></g></g></g></g></g><g transform="matrix(1, 0, 0, 1, 161, 341)"><g clip-path="url(#75fee27c17)"><g fill="#08cb00" fill-opacity="1"><g transform="translate(4.955034, 512.566532)"><g><path d="M 217.90625 -237.84375 C 240.40625 -237.84375 257.789062 -231.28125 270.0625 -218.15625 C 282.34375 -205.03125 290.015625 -187.296875 293.078125 -164.953125 C 296.148438 -142.617188 295.046875 -117.46875 289.765625 -89.5 C 284.484375 -61.539062 275.445312 -32.644531 262.65625 -2.8125 C 249.863281 27.019531 233.921875 55.921875 214.828125 83.890625 L 109.96875 84.90625 C 119.863281 70.925781 129.671875 55.328125 139.390625 38.109375 C 149.109375 20.890625 158.144531 3.414062 166.5 -14.3125 C 174.851562 -32.050781 181.753906 -49.1875 187.203125 -65.71875 C 192.660156 -82.257812 196.070312 -97.179688 197.4375 -110.484375 C 198.800781 -123.785156 197.4375 -134.269531 193.34375 -141.9375 C 189.25 -149.613281 181.578125 -153.453125 170.328125 -153.453125 C 150.210938 -153.453125 134.097656 -146.035156 121.984375 -131.203125 C 109.878906 -116.367188 103.488281 -97.867188 102.8125 -75.703125 C 104.519531 -65.472656 106.476562 -54.984375 108.6875 -44.234375 C 110.90625 -33.492188 113.722656 -22.671875 117.140625 -11.765625 L 37.84375 -11.765625 C 23.53125 -58.140625 14.753906 -100.765625 11.515625 -139.640625 C 8.273438 -178.515625 11.425781 -217.21875 20.96875 -255.75 L 124.8125 -255.75 C 120.375 -245.175781 116.445312 -234.175781 113.03125 -222.75 C 109.625 -211.332031 106.726562 -199.65625 104.34375 -187.71875 C 115.9375 -203.0625 130.941406 -215.421875 149.359375 -224.796875 C 167.773438 -234.179688 190.625 -238.53125 217.90625 -237.84375 Z M 217.90625 -237.84375 "/></g></g></g></g></g><g transform="matrix(1, 0, 0, 1, 1220, 405)"><g clip-path="url(#68e9d148a8)"><g fill="#ffffff" fill-opacity="1"><g transform="translate(1.066795, 462.7347)"><g><path d="M 137.046875 -57.59375 C 140.128906 -57.59375 141.671875 -56.332031 141.671875 -53.8125 L 141.671875 -3.78125 C 141.671875 -1.257812 140.128906 0 137.046875 0 L 4.625 0 C 1.539062 0 0 -1.257812 0 -3.78125 L 0 -53.8125 C 0 -56.332031 1.539062 -57.59375 4.625 -57.59375 L 39.09375 -57.59375 L 39.09375 -336.296875 L 103.40625 -336.296875 L 103.40625 -57.59375 Z M 137.046875 -57.59375 "/></g></g></g></g></g><g transform="matrix(1, 0, 0, 1, 945, 405)"><g clip-path="url(#94145e7a13)"><g fill="#ffffff" fill-opacity="1"><g transform="translate(8.188409, 462.7347)"><g><path d="M 264 -5.046875 C 264.5625 -3.921875 264.421875 -2.796875 263.578125 -1.671875 C 262.734375 -0.554688 261.613281 0 260.21875 0 L 202.203125 0 C 200.234375 0 198.972656 -0.835938 198.421875 -2.515625 L 132 -190.015625 L 66.421875 -2.515625 C 66.140625 -0.835938 64.738281 0 62.21875 0 L 4.625 0 C 2.664062 0 1.332031 -0.554688 0.625 -1.671875 C -0.0703125 -2.796875 -0.140625 -3.921875 0.421875 -5.046875 L 127.796875 -333.78125 C 128.359375 -335.457031 129.757812 -336.296875 132 -336.296875 C 134.238281 -336.296875 135.640625 -335.457031 136.203125 -333.78125 Z M 264 -5.046875 "/></g></g></g></g></g></svg>